<?xml version="1.0" standalone="no"?>
<!DOCTYPE svg PUBLIC "-//W3C//DTD SVG 20010904//EN"
 "http://www.w3.org/TR/2001/REC-SVG-20010904/DTD/svg10.dtd">
<svg version="1.0" xmlns="http://www.w3.org/2000/svg"
 width="500.000000pt" height="500.000000pt" viewBox="0 0 500.000000 500.000000"
 preserveAspectRatio="xMidYMid meet">
<metadata>
Created by potrace 1.14, written by Peter Selinger 2001-2017
</metadata>
<g transform="translate(0.000000,500.000000) scale(0.100000,-0.100000)"
fill="#000000" stroke="none">
<path d="M0 2500 l0 -2500 2500 0 2500 0 0 2500 0 2500 -2500 0 -2500 0 0
-2500z m2723 1746 c18 -7 49 -32 69 -55 35 -41 35 -41 104 -41 77 0 94 -9 94
-52 l0 -27 148 -3 147 -3 3 -719 c1 -523 -1 -723 -9 -732 -17 -21 -1241 -21
-1258 0 -8 9 -10 209 -9 732 l3 719 148 3 147 3 0 27 c0 43 17 52 94 52 69 0
69 0 104 41 20 23 50 48 66 55 40 17 108 17 149 0z m94 -2026 c28 -16 54 -33
56 -37 3 -5 -5 -21 -17 -36 l-23 -28 -61 33 c-34 18 -62 37 -62 41 0 13 34 56
45 57 6 0 33 -14 62 -30z m343 15 c0 -12 17 -15 90 -15 l90 0 0 -30 0 -30 -90
0 c-83 0 -90 -1 -90 -20 0 -18 7 -20 80 -20 79 0 80 0 80 -25 0 -25 -1 -25
-80 -25 -73 0 -80 -2 -80 -20 0 -19 7 -20 100 -20 l100 0 0 -25 0 -25 -240 0
-240 0 0 25 c0 25 0 25 95 25 88 0 95 1 95 20 0 18 -7 20 -75 20 -73 0 -75 1
-75 25 0 24 2 25 75 25 68 0 75 2 75 20 0 18 -7 20 -85 20 l-85 0 0 30 0 30
85 0 c69 0 85 3 85 15 0 11 12 15 45 15 33 0 45 -4 45 -15z m-1310 -70 l0 -45
-45 0 -45 0 0 -249 c0 -248 0 -250 -23 -277 -22 -25 -31 -28 -109 -32 l-85 -4
-11 28 c-5 16 -13 37 -17 46 -6 15 2 17 72 20 l78 3 3 233 2 232 -250 0 -250
0 0 45 0 45 340 0 340 0 0 -45z m234 8 c3 -21 6 -94 6 -163 0 -69 3 -142 6
-162 l6 -37 51 20 c27 11 54 16 58 12 4 -4 9 -24 11 -43 l3 -34 -143 -63 -143
-62 -9 25 c-26 68 -25 71 29 89 l51 17 -5 101 c-3 56 -7 155 -10 220 l-5 117
44 0 c42 0 44 -1 50 -37z m456 8 c0 -68 -53 -291 -80 -341 -6 -10 7 -31 43
-70 29 -31 66 -74 84 -96 l32 -41 -37 -36 -38 -37 -46 62 c-25 35 -57 73 -70
85 l-24 23 -60 -58 c-32 -31 -83 -70 -112 -86 l-54 -28 -34 33 c-19 18 -34 36
-34 39 0 3 25 18 55 33 144 71 234 214 265 424 19 132 15 123 65 123 43 0 45
-1 45 -29z m-250 -91 c66 -99 66 -95 16 -123 l-44 -25 -18 41 c-10 22 -35 64
-56 93 l-37 54 37 19 c44 23 48 20 102 -59z m534 -95 c18 -13 18 -15 -3 -49
l-22 -34 -55 33 c-31 19 -61 36 -67 38 -7 2 -2 16 11 35 l22 31 48 -20 c26
-11 55 -26 66 -34z m-1264 -110 l0 -145 -114 0 -115 0 -3 -27 c-3 -25 -7 -28
-45 -31 l-43 -3 0 175 0 176 160 0 160 0 0 -145z m1750 -109 c0 -196 -3 -204
-90 -213 l-56 -5 -11 36 -11 36 45 0 c44 0 44 0 41 33 l-3 32 -102 3 -103 3 0
-71 0 -70 -40 0 -40 0 0 190 0 190 185 0 185 0 0 -164z m-456 51 l29 -24 -57
-109 c-32 -60 -61 -112 -65 -116 -4 -5 -22 4 -39 20 l-33 27 63 112 c35 62 65
112 68 113 3 0 18 -11 34 -23z m-446 -538 c-5 -14 -21 -14 -26 0 -2 6 4 11 13
11 9 0 15 -5 13 -11z m542 1 c0 -5 -4 -10 -10 -10 -5 0 -10 5 -10 10 0 6 5 10
10 10 6 0 10 -4 10 -10z m-624 -87 c-3 -16 -8 -53 -11 -83 -9 -82 -16 -110
-25 -110 -5 0 -8 6 -5 13 2 6 6 39 9 72 3 33 8 75 12 93 6 30 5 32 -20 32 -43
0 -78 -45 -74 -94 3 -45 26 -58 57 -34 9 7 6 3 -7 -9 -28 -27 -35 -28 -57 -6
-25 24 -14 88 21 124 21 22 37 29 67 29 37 0 38 -1 33 -27z m70 10 c-2 -10 -8
-46 -11 -81 -4 -34 -12 -65 -17 -68 -10 -7 -9 15 8 129 3 20 10 37 16 37 5 0
7 -8 4 -17z m63 -60 c-5 -13 -9 -37 -9 -53 0 -16 -5 -32 -11 -36 -12 -7 -7 67
8 141 l6 30 8 -28 c4 -16 4 -40 -2 -54z m100 59 c10 -19 0 -136 -13 -149 -4
-5 -6 28 -4 72 3 70 1 80 -15 83 -10 2 -27 -4 -38 -14 -10 -9 -19 -12 -19 -6
0 31 74 42 89 14z m172 1 c-33 -64 -43 -103 -32 -117 7 -8 11 -27 9 -43 -6
-53 -92 -68 -122 -21 -15 25 18 58 61 58 26 0 33 4 33 20 0 14 -7 20 -23 20
-45 0 -62 46 -30 82 11 13 30 18 65 18 43 0 47 -2 39 -17z m70 -14 l13 -32 29
33 c37 41 47 33 11 -10 l-27 -32 21 -44 c12 -25 22 -47 22 -50 0 -14 -22 11
-38 43 l-19 35 -32 -41 c-19 -23 -36 -40 -38 -37 -3 3 9 24 27 46 33 41 33 42
16 76 -18 40 -19 44 -7 44 5 0 14 -14 22 -31z m135 -16 c-14 -104 -18 -123
-25 -119 -10 7 10 166 22 166 5 0 7 -19 3 -47z m71 26 l-6 -21 24 22 c15 14
33 20 51 18 l29 -3 -2 -74 c-1 -41 -7 -79 -12 -84 -6 -6 -9 17 -8 69 2 67 0
79 -15 82 -31 6 -65 -43 -73 -103 -3 -31 -10 -53 -14 -51 -4 3 -4 31 0 63 4
32 8 68 8 81 1 12 6 22 12 22 7 0 9 -9 6 -21z"/>
<path d="M2592 4170 c-18 -11 -40 -36 -47 -54 -17 -40 -30 -46 -101 -46 l-54
0 0 -55 0 -55 260 0 260 0 0 55 0 55 -54 0 c-71 0 -84 6 -101 46 -15 38 -67
74 -105 74 -14 0 -40 -9 -58 -20z"/>
<path d="M2082 3338 l3 -663 565 0 565 0 3 663 2 662 -115 0 -115 0 0 -44 c0
-78 9 -76 -336 -76 -191 0 -313 4 -325 10 -15 8 -19 22 -19 60 l0 50 -115 0
-115 0 2 -662z m608 302 c18 -18 19 -29 13 -137 -14 -286 -17 -315 -35 -327
-13 -8 -23 -8 -35 0 -19 12 -22 41 -36 327 -6 108 -5 119 13 137 11 11 29 20
40 20 11 0 29 -9 40 -20z m0 -530 c24 -24 25 -38 4 -68 -29 -42 -104 -17 -104
35 0 20 38 53 60 53 11 0 29 -9 40 -20z"/>
<path d="M1330 1890 l0 -60 70 0 70 0 0 60 0 60 -70 0 -70 0 0 -60z"/>
<path d="M3020 1860 c0 -19 7 -20 105 -20 98 0 105 1 105 20 0 19 -7 20 -105
20 -98 0 -105 -1 -105 -20z"/>
<path d="M3020 1770 c0 -19 7 -20 105 -20 98 0 105 1 105 20 0 19 -7 20 -105
20 -98 0 -105 -1 -105 -20z"/>
<path d="M2637 1214 c-14 -14 -7 -65 9 -71 26 -10 49 11 49 43 0 24 -5 30 -25
32 -14 2 -29 0 -33 -4z"/>
<path d="M2613 1074 c-20 -9 -15 -42 7 -54 27 -15 75 8 75 35 0 16 -7 20 -35
22 -19 1 -41 0 -47 -3z"/>
</g>
</svg>
